<svg id="Logo_endossement_ERUDITE_couleur" data-name="Logo endossement ERUDITE couleur" xmlns="http://www.w3.org/2000/svg" viewBox="0 0 502.668 127.823"><defs><style>.cls-1{fill:#2f2a85;}.cls-2{fill:#009c62;}</style></defs><g id="Logo_endossement_ERUDITE_couleur-2" data-name="Logo endossement ERUDITE couleur"><polyline class="cls-1" points="241.158 48.749 241.158 127.823 238.463 127.823 238.463 48.749"/><path d="M257.456,87.542a.77.77,0,0,0-.176-.523,1.413,1.413,0,0,0-.462-.342,3.533,3.533,0,0,0-.649-.235q-.363-.1-.748-.208a7.1,7.1,0,0,1-.748-.262,2.514,2.514,0,0,1-.649-.385,1.758,1.758,0,0,1-.462-.587,1.955,1.955,0,0,1-.176-.876,1.878,1.878,0,0,1,.171-.79,1.8,1.8,0,0,1,.5-.646,2.44,2.44,0,0,1,.8-.433,3.336,3.336,0,0,1,1.067-.16,3.018,3.018,0,0,1,1.013.154,3.451,3.451,0,0,1,.714.341,2.816,2.816,0,0,1,.583.495l-.77.809a1.715,1.715,0,0,0-.374-.35,2.238,2.238,0,0,0-.483-.238,1.949,1.949,0,0,0-.683-.111,1.812,1.812,0,0,0-.556.08,1.276,1.276,0,0,0-.418.22.971.971,0,0,0-.258.309.756.756,0,0,0-.088.353.773.773,0,0,0,.176.523,1.428,1.428,0,0,0,.462.342,3.561,3.561,0,0,0,.649.234c.242.065.492.134.748.209a7.021,7.021,0,0,1,.748.261,2.555,2.555,0,0,1,.649.385,1.762,1.762,0,0,1,.462.588,1.948,1.948,0,0,1,.176.875,2.182,2.182,0,0,1-.182.892,1.946,1.946,0,0,1-.533.71,2.56,2.56,0,0,1-.863.47,3.693,3.693,0,0,1-1.172.171,3.608,3.608,0,0,1-1.221-.186,3.856,3.856,0,0,1-.858-.417,2.979,2.979,0,0,1-.671-.6l.77-.735a2,2,0,0,0,.473.419,2.9,2.9,0,0,0,.61.289,2.7,2.7,0,0,0,.9.131,1.686,1.686,0,0,0,1.144-.347A1.065,1.065,0,0,0,257.456,87.542Z" transform="translate(0 -11.309)"/><path d="M259.6,87.166a2.4,2.4,0,0,1,.22-1.018,2.785,2.785,0,0,1,.6-.843,2.893,2.893,0,0,1,.874-.578,2.736,2.736,0,0,1,2.112,0,2.893,2.893,0,0,1,.874.578,2.785,2.785,0,0,1,.6.843,2.465,2.465,0,0,1,0,2.036,2.773,2.773,0,0,1-.6.843,2.893,2.893,0,0,1-.874.578,2.736,2.736,0,0,1-2.112,0,2.893,2.893,0,0,1-.874-.578,2.773,2.773,0,0,1-.6-.843A2.4,2.4,0,0,1,259.6,87.166Zm4.4,0a1.613,1.613,0,0,0-.132-.654,1.631,1.631,0,0,0-.363-.524,1.765,1.765,0,0,0-.528-.353,1.577,1.577,0,0,0-1.254,0,1.765,1.765,0,0,0-.528.353,1.631,1.631,0,0,0-.363.524,1.64,1.64,0,0,0,.363,1.832,1.768,1.768,0,0,0,.528.354,1.577,1.577,0,0,0,1.254,0,1.768,1.768,0,0,0,.528-.354,1.615,1.615,0,0,0,.5-1.178Z" transform="translate(0 -11.309)"/><path d="M270.051,89.2a2.18,2.18,0,0,1-.429.31,3.155,3.155,0,0,1-.5.213,2.063,2.063,0,0,1-.665.1,2.352,2.352,0,0,1-.869-.156,1.9,1.9,0,0,1-.677-.449,2.065,2.065,0,0,1-.439-.713,2.647,2.647,0,0,1-.161-.95V84.526h1.1v3.01a1.255,1.255,0,0,0,.363.931,1.23,1.23,0,0,0,.9.361,1.324,1.324,0,0,0,1-.388,1.547,1.547,0,0,0,.374-1.118v-2.8h1.1v5.28h-1.1Z" transform="translate(0 -11.309)"/><path d="M275.386,85.945a1.347,1.347,0,0,0-.264-.22,1.414,1.414,0,0,0-.319-.154,1.211,1.211,0,0,0-.407-.066.882.882,0,0,0-.572.163.469.469,0,0,0-.2.363.41.41,0,0,0,.2.368,2.281,2.281,0,0,0,.5.226c.2.067.418.131.65.195a2.9,2.9,0,0,1,.648.262,1.527,1.527,0,0,1,.5.443,1.187,1.187,0,0,1,.2.715,1.365,1.365,0,0,1-.137.6,1.54,1.54,0,0,1-.4.5,1.9,1.9,0,0,1-.627.347,2.822,2.822,0,0,1-1.721-.017,2.982,2.982,0,0,1-.628-.319,2.071,2.071,0,0,1-.5-.473l.715-.674a1.833,1.833,0,0,0,.352.31,2.719,2.719,0,0,0,.412.211,1.453,1.453,0,0,0,.556.1,1.018,1.018,0,0,0,.671-.18.57.57,0,0,0,.209-.452.413.413,0,0,0-.2-.363,2.056,2.056,0,0,0-.5-.231c-.2-.066-.418-.132-.649-.194a2.956,2.956,0,0,1-.648-.264,1.52,1.52,0,0,1-.5-.436,1.185,1.185,0,0,1-.2-.72,1.168,1.168,0,0,1,.137-.542,1.51,1.51,0,0,1,.386-.473,2.005,2.005,0,0,1,.588-.332,2.414,2.414,0,0,1,1.506-.011,3.127,3.127,0,0,1,.54.248,1.681,1.681,0,0,1,.418.352Z" transform="translate(0 -11.309)"/><path d="M280.941,89.806h-1.1v-7.7h1.1Z" transform="translate(0 -11.309)"/><path d="M285.726,89.806V89.2a2.18,2.18,0,0,1-.429.31,3.1,3.1,0,0,1-.5.213,2.069,2.069,0,0,1-.666.1,2.178,2.178,0,0,1-.759-.126,1.991,1.991,0,0,1-.588-.331,1.5,1.5,0,0,1-.386-.473,1.18,1.18,0,0,1-.137-.541,1.408,1.408,0,0,1,.419-1.045,2,2,0,0,1,1.121-.531l1.925-.315a.876.876,0,0,0-.3-.675,1.143,1.143,0,0,0-.8-.275,1.482,1.482,0,0,0-.6.112,2.3,2.3,0,0,0-.429.24,1.7,1.7,0,0,0-.341.341l-.715-.693a2.633,2.633,0,0,1,.528-.495,3.133,3.133,0,0,1,.649-.341,2.468,2.468,0,0,1,.913-.154,2.59,2.59,0,0,1,.9.151,2.1,2.1,0,0,1,.694.415,1.912,1.912,0,0,1,.445.622,1.852,1.852,0,0,1,.159.755v3.348Zm-1.43-.978a1.441,1.441,0,0,0,1.045-.373,1.417,1.417,0,0,0,.385-1.072v-.1l-1.7.257a.913.913,0,0,0-.473.227.584.584,0,0,0-.187.443.542.542,0,0,0,.237.428A1.092,1.092,0,0,0,284.3,88.828Z" transform="translate(0 -11.309)"/><path d="M290.236,87.166a2.4,2.4,0,0,1,.22-1.018,2.768,2.768,0,0,1,.6-.843,2.9,2.9,0,0,1,.875-.578,2.655,2.655,0,0,1,1.055-.212,2.316,2.316,0,0,1,.913.168,3.352,3.352,0,0,1,.671.369,3.162,3.162,0,0,1,.561.526l-.715.671a2.308,2.308,0,0,0-.362-.372,2.467,2.467,0,0,0-.452-.256,1.521,1.521,0,0,0-.616-.116,1.548,1.548,0,0,0-.627.13,1.765,1.765,0,0,0-.528.353,1.644,1.644,0,0,0-.362.524,1.674,1.674,0,0,0,0,1.308,1.633,1.633,0,0,0,.362.524,1.768,1.768,0,0,0,.528.354,1.635,1.635,0,0,0,1.254.01,2.186,2.186,0,0,0,.462-.262,2.725,2.725,0,0,0,.4-.392l.714.67a3.161,3.161,0,0,1-.583.547,3.42,3.42,0,0,1-.693.377,2.382,2.382,0,0,1-.924.169,2.655,2.655,0,0,1-1.055-.212,2.9,2.9,0,0,1-.875-.578,2.756,2.756,0,0,1-.6-.843A2.4,2.4,0,0,1,290.236,87.166Z" transform="translate(0 -11.309)"/><path d="M295.956,87.166a2.4,2.4,0,0,1,.22-1.018,2.765,2.765,0,0,1,.6-.843,2.9,2.9,0,0,1,.875-.578,2.736,2.736,0,0,1,2.112,0,2.9,2.9,0,0,1,.875.578,2.782,2.782,0,0,1,.6.843,2.465,2.465,0,0,1,0,2.036,2.77,2.77,0,0,1-.6.843,2.9,2.9,0,0,1-.875.578,2.736,2.736,0,0,1-2.112,0,2.9,2.9,0,0,1-.875-.578,2.753,2.753,0,0,1-.6-.843A2.4,2.4,0,0,1,295.956,87.166Zm4.4,0a1.613,1.613,0,0,0-.132-.654,1.631,1.631,0,0,0-.363-.524,1.765,1.765,0,0,0-.528-.353,1.577,1.577,0,0,0-1.254,0,1.765,1.765,0,0,0-.528.353,1.631,1.631,0,0,0-.363.524,1.64,1.64,0,0,0,.363,1.832,1.768,1.768,0,0,0,.528.354,1.577,1.577,0,0,0,1.254,0,1.768,1.768,0,0,0,.528-.354,1.615,1.615,0,0,0,.5-1.178Z" transform="translate(0 -11.309)"/><path d="M306.241,87.056h-3.85v-.99h3.85Z" transform="translate(0 -11.309)"/><path d="M308.056,82.667h.99v1.859h1.1v.99h-1.1v2.659a.629.629,0,0,0,.186.471.654.654,0,0,0,.474.182,1.232,1.232,0,0,0,.374-.054,1.478,1.478,0,0,0,.176-.054v.987a1.723,1.723,0,0,1-.22.055,2.473,2.473,0,0,1-.55.055,1.526,1.526,0,0,1-1.144-.4,1.658,1.658,0,0,1-.4-1.209V85.516h-.99v-.99h.55a.5.5,0,0,0,.4-.174.786.786,0,0,0,.149-.524Z" transform="translate(0 -11.309)"/><path d="M315.315,89.2a2.173,2.173,0,0,1-.428.31,3.155,3.155,0,0,1-.5.213,2.067,2.067,0,0,1-.665.1,2.354,2.354,0,0,1-.87-.156,1.9,1.9,0,0,1-.676-.449,2.067,2.067,0,0,1-.44-.713,2.669,2.669,0,0,1-.16-.95V84.526h1.1v3.01a1.255,1.255,0,0,0,.363.931,1.227,1.227,0,0,0,.9.361,1.324,1.324,0,0,0,1-.388,1.547,1.547,0,0,0,.374-1.118v-2.8h1.1v5.28h-1.1Z" transform="translate(0 -11.309)"/><path d="M318.671,82.667h.99v1.859h1.1v.99h-1.1v2.659a.626.626,0,0,0,.187.471.651.651,0,0,0,.472.182,1.222,1.222,0,0,0,.374-.054,1.552,1.552,0,0,0,.177-.054v.987a1.659,1.659,0,0,1-.221.055,2.463,2.463,0,0,1-.549.055,1.526,1.526,0,0,1-1.144-.4,1.654,1.654,0,0,1-.4-1.209V85.516h-.99v-.99h.551a.5.5,0,0,0,.4-.174.791.791,0,0,0,.149-.524Z" transform="translate(0 -11.309)"/><path d="M322.96,87.419a1.7,1.7,0,0,0,.182.53,1.6,1.6,0,0,0,.352.45,1.725,1.725,0,0,0,.5.309,1.6,1.6,0,0,0,.616.12,1.777,1.777,0,0,0,.688-.127,2.207,2.207,0,0,0,.5-.281,2.468,2.468,0,0,0,.406-.418l.715.715a2.682,2.682,0,0,1-.594.55,3.5,3.5,0,0,1-.725.38,2.69,2.69,0,0,1-.991.17,2.655,2.655,0,0,1-1.055-.212,2.857,2.857,0,0,1-.875-.583,2.794,2.794,0,0,1-.6-.86,2.529,2.529,0,0,1-.22-1.049,2.42,2.42,0,0,1,.215-1.013,2.655,2.655,0,0,1,.577-.821,2.762,2.762,0,0,1,.853-.557,2.67,2.67,0,0,1,1.051-.207,2.835,2.835,0,0,1,1.033.183,2.474,2.474,0,0,1,.82.509,2.324,2.324,0,0,1,.539.776,2.452,2.452,0,0,1,.193.978,1.643,1.643,0,0,1-.012.208c-.007.063-.015.118-.022.167s-.014.083-.022.083Zm1.6-1.969a1.628,1.628,0,0,0-1.024.306,1.466,1.466,0,0,0-.528.761h3.058a1.3,1.3,0,0,0-.489-.761A1.6,1.6,0,0,0,324.556,85.45Z" transform="translate(0 -11.309)"/><path d="M329.56,89.806h-1.1v-7.7h1.1Z" transform="translate(0 -11.309)"/><path d="M332.42,89.806h-1.1v-7.7h1.1Z" transform="translate(0 -11.309)"/><path d="M334.84,87.419a1.727,1.727,0,0,0,.181.53,1.6,1.6,0,0,0,.353.45,1.725,1.725,0,0,0,.5.309,1.592,1.592,0,0,0,.616.12,1.777,1.777,0,0,0,.688-.127,2.207,2.207,0,0,0,.5-.281,2.468,2.468,0,0,0,.406-.418l.715.715a2.682,2.682,0,0,1-.594.55,3.48,3.48,0,0,1-.726.38,2.843,2.843,0,0,1-2.046-.042,2.857,2.857,0,0,1-.875-.583,2.808,2.808,0,0,1-.6-.86,2.513,2.513,0,0,1-.22-1.049,2.4,2.4,0,0,1,.215-1.013,2.655,2.655,0,0,1,.577-.821,2.762,2.762,0,0,1,.853-.557,2.665,2.665,0,0,1,1.05-.207,2.841,2.841,0,0,1,1.034.183,2.474,2.474,0,0,1,.82.509,2.338,2.338,0,0,1,.539.776,2.452,2.452,0,0,1,.192.978,1.655,1.655,0,0,1-.011.208c-.007.063-.015.118-.022.167s-.014.083-.022.083Zm1.6-1.969a1.627,1.627,0,0,0-1.023.306,1.466,1.466,0,0,0-.528.761h3.058a1.3,1.3,0,0,0-.489-.761A1.6,1.6,0,0,0,336.435,85.45Z" transform="translate(0 -11.309)"/><path d="M344.685,84.515a2.061,2.061,0,0,1,.7.115,3.15,3.15,0,0,1,.539.248,2.3,2.3,0,0,1,.462.352V82.106h1.1v7.7h-1.1v-.671a2.074,2.074,0,0,1-.462.346,2.972,2.972,0,0,1-.539.231,2.219,2.219,0,0,1-.7.1,2.422,2.422,0,0,1-.984-.206,2.728,2.728,0,0,1-.825-.563,2.662,2.662,0,0,1-.567-.838,2.711,2.711,0,0,1,0-2.083,2.662,2.662,0,0,1,.567-.843,2.725,2.725,0,0,1,.825-.562A2.406,2.406,0,0,1,344.685,84.515Zm.111,4.313a1.433,1.433,0,0,0,.594-.13,1.741,1.741,0,0,0,.511-.354,1.654,1.654,0,0,0,.358-.524,1.686,1.686,0,0,0,0-1.308,1.665,1.665,0,0,0-.358-.524,1.738,1.738,0,0,0-.511-.353,1.424,1.424,0,0,0-1.189,0,1.738,1.738,0,0,0-.511.353,1.679,1.679,0,0,0-.357.524,1.674,1.674,0,0,0,0,1.308,1.668,1.668,0,0,0,.357.524,1.741,1.741,0,0,0,.511.354A1.437,1.437,0,0,0,344.8,88.828Z" transform="translate(0 -11.309)"/><path d="M349.91,87.419a1.7,1.7,0,0,0,.182.53,1.615,1.615,0,0,0,.352.45,1.725,1.725,0,0,0,.5.309,1.6,1.6,0,0,0,.616.12,1.777,1.777,0,0,0,.688-.127,2.207,2.207,0,0,0,.5-.281,2.468,2.468,0,0,0,.406-.418l.715.715a2.66,2.66,0,0,1-.594.55,3.5,3.5,0,0,1-.725.38,2.686,2.686,0,0,1-.991.17,2.655,2.655,0,0,1-1.055-.212,2.857,2.857,0,0,1-.875-.583,2.811,2.811,0,0,1-.6-.86,2.529,2.529,0,0,1-.22-1.049,2.42,2.42,0,0,1,.215-1.013,2.655,2.655,0,0,1,.577-.821,2.774,2.774,0,0,1,.853-.557,2.67,2.67,0,0,1,1.051-.207,2.832,2.832,0,0,1,1.033.183,2.474,2.474,0,0,1,.82.509,2.324,2.324,0,0,1,.539.776,2.452,2.452,0,0,1,.193.978,1.643,1.643,0,0,1-.012.208c-.007.063-.015.118-.021.167s-.015.083-.023.083Zm1.6-1.969a1.628,1.628,0,0,0-1.024.306,1.471,1.471,0,0,0-.528.761h3.059a1.305,1.305,0,0,0-.49-.761A1.6,1.6,0,0,0,351.506,85.45Z" transform="translate(0 -11.309)"/><path d="M357.336,85.23a.735.735,0,0,1,.715-.715.708.708,0,1,1-.715.715Zm0,3.872a.715.715,0,0,1,1.43,0,.731.731,0,0,1-.715.715.733.733,0,0,1-.715-.715Z" transform="translate(0 -11.309)"/><path d="M257.017,101.533a1.63,1.63,0,0,0,.66-.135,1.689,1.689,0,0,0,.538-.37,1.814,1.814,0,0,0,.369-.559,1.774,1.774,0,0,0,.138-.708V95.306h1.649v4.476a3.19,3.19,0,0,1-.253,1.278,3.132,3.132,0,0,1-.7,1.024,3.279,3.279,0,0,1-1.062.685,3.723,3.723,0,0,1-2.672,0,3.268,3.268,0,0,1-1.062-.685,3.117,3.117,0,0,1-.7-1.024,3.19,3.19,0,0,1-.253-1.278V95.306h1.65v4.455a1.774,1.774,0,0,0,.138.708,1.794,1.794,0,0,0,.368.559,1.694,1.694,0,0,0,.539.37A1.625,1.625,0,0,0,257.017,101.533Z" transform="translate(0 -11.309)"/><path d="M269.172,95.306v7.7h-1.431l-3.795-4.894v4.894H262.3v-7.7h1.429l3.8,4.9v-4.9Z" transform="translate(0 -11.309)"/><path d="M271.151,95.306H272.8v7.7h-1.651Z" transform="translate(0 -11.309)"/><path d="M274.012,95.306h1.759l1.98,5.72,1.98-5.72h1.76l-2.86,7.7h-1.76Z" transform="translate(0 -11.309)"/><path d="M288.476,101.521v1.485H282.7v-7.7h5.665v1.485h-4.015v1.54h3.135v1.485h-3.135v1.7Z" transform="translate(0 -11.309)"/><path d="M290.017,95.306h3.409a2.8,2.8,0,0,1,1.061.2,2.525,2.525,0,0,1,.836.539,2.5,2.5,0,0,1,.743,1.793,2.292,2.292,0,0,1-.22,1.056,2.907,2.907,0,0,1-.473.693,2.3,2.3,0,0,1-.682.506l1.65,2.915h-1.76l-1.485-2.695h-1.43v2.695h-1.649Zm4.4,2.53a1,1,0,0,0-1.045-1.045h-1.7v2.036h1.7a1.03,1.03,0,0,0,.754-.287A.951.951,0,0,0,294.416,97.836Z" transform="translate(0 -11.309)"/><path d="M301.182,100.644a.594.594,0,0,0-.282-.524,2.783,2.783,0,0,0-.7-.326c-.282-.091-.586-.183-.913-.278a4.153,4.153,0,0,1-.912-.383,2.153,2.153,0,0,1-.7-.634,1.774,1.774,0,0,1-.281-1.054,1.9,1.9,0,0,1,.187-.824,2.017,2.017,0,0,1,.539-.686,2.7,2.7,0,0,1,.853-.467,3.753,3.753,0,0,1,2.227-.008,4.01,4.01,0,0,1,.792.364,3.129,3.129,0,0,1,.627.516l-.99,1.019a2.387,2.387,0,0,0-.385-.317,2.68,2.68,0,0,0-.451-.216,1.659,1.659,0,0,0-.594-.1,1.147,1.147,0,0,0-.77.236.707.707,0,0,0-.275.551.591.591,0,0,0,.281.529,2.931,2.931,0,0,0,.7.32c.282.092.587.183.913.278a4.23,4.23,0,0,1,.913.383,2.166,2.166,0,0,1,.7.639,1.788,1.788,0,0,1,.28,1.049,2.164,2.164,0,0,1-.192.912,2.043,2.043,0,0,1-.566.729,2.8,2.8,0,0,1-.914.488,3.953,3.953,0,0,1-1.243.178,3.816,3.816,0,0,1-1.27-.192,4.083,4.083,0,0,1-.907-.435,3.633,3.633,0,0,1-.738-.638l.99-.938a2.33,2.33,0,0,0,.473.391,2.839,2.839,0,0,0,.567.264,2.347,2.347,0,0,0,.775.118,1.427,1.427,0,0,0,.946-.272A.849.849,0,0,0,301.182,100.644Z" transform="translate(0 -11.309)"/><path d="M304.427,95.306h1.649v7.7h-1.649Z" transform="translate(0 -11.309)"/><path d="M313.336,95.306v1.485h-2.2v6.215h-1.65V96.791h-2.2V95.306Z" transform="translate(0 -11.309)"/><path d="M320.321,101.521v1.485h-5.775v-7.7h5.665v1.485H316.2v1.54h3.135v1.485H316.2v1.7Zm-2.64-8.8h1.54l-1.21,1.65H316.8Z" transform="translate(0 -11.309)"/><path d="M331.211,98.672v2.861a4.281,4.281,0,0,1-.859.748,4.575,4.575,0,0,1-1.044.51,4.272,4.272,0,0,1-1.453.226,4.4,4.4,0,0,1-1.655-.307,4.212,4.212,0,0,1-1.325-.83,3.808,3.808,0,0,1-.88-1.227,3.67,3.67,0,0,1,0-2.993,3.808,3.808,0,0,1,.88-1.227A4.215,4.215,0,0,1,326.2,95.6a4.417,4.417,0,0,1,1.655-.307,3.74,3.74,0,0,1,1.4.241,4.762,4.762,0,0,1,1,.526,3.979,3.979,0,0,1,.792.766l-1.045.9a2.771,2.771,0,0,0-.539-.474,3.385,3.385,0,0,0-.671-.326,2.966,2.966,0,0,0-1.937.034,2.463,2.463,0,0,0-.8.5,2.325,2.325,0,0,0,0,3.388,2.463,2.463,0,0,0,.8.5,2.719,2.719,0,0,0,1,.182,2.849,2.849,0,0,0,.748-.088,2.569,2.569,0,0,0,.54-.21,1.543,1.543,0,0,0,.417-.308V99.882h-1.375v-1.21Z" transform="translate(0 -11.309)"/><path d="M336.326,101.533a1.63,1.63,0,0,0,.66-.135,1.678,1.678,0,0,0,.538-.37,1.791,1.791,0,0,0,.507-1.267V95.306h1.65v4.476a3.19,3.19,0,0,1-.253,1.278,3.147,3.147,0,0,1-.7,1.024,3.289,3.289,0,0,1-1.062.685,3.725,3.725,0,0,1-2.673,0,3.274,3.274,0,0,1-1.061-.685,3.132,3.132,0,0,1-.7-1.024,3.19,3.19,0,0,1-.253-1.278V95.306h1.65v4.455a1.774,1.774,0,0,0,.138.708,1.794,1.794,0,0,0,.368.559,1.694,1.694,0,0,0,.539.37A1.624,1.624,0,0,0,336.326,101.533Z" transform="translate(0 -11.309)"/><path d="M344.961,100.644a.6.6,0,0,0-.28-.524,2.807,2.807,0,0,0-.7-.326c-.282-.091-.586-.183-.913-.278a4.181,4.181,0,0,1-.913-.383,2.183,2.183,0,0,1-.7-.634,1.788,1.788,0,0,1-.28-1.054,1.911,1.911,0,0,1,.186-.824,2.02,2.02,0,0,1,.54-.686,2.7,2.7,0,0,1,.852-.467,3.756,3.756,0,0,1,2.228-.008,4.038,4.038,0,0,1,.792.364,3.129,3.129,0,0,1,.627.516l-.99,1.019a2.431,2.431,0,0,0-.385-.317,2.643,2.643,0,0,0-.451-.216,1.659,1.659,0,0,0-.594-.1,1.147,1.147,0,0,0-.77.236.71.71,0,0,0-.275.551.593.593,0,0,0,.28.529,2.949,2.949,0,0,0,.7.32c.282.092.587.183.913.278a4.21,4.21,0,0,1,.913.383,2.156,2.156,0,0,1,.7.639,1.781,1.781,0,0,1,.281,1.049,2.165,2.165,0,0,1-.193.912,2.032,2.032,0,0,1-.566.729,2.779,2.779,0,0,1-.913.488,3.958,3.958,0,0,1-1.243.178,3.822,3.822,0,0,1-1.271-.192,4.126,4.126,0,0,1-.907-.435,3.653,3.653,0,0,1-.737-.638l.99-.938a2.351,2.351,0,0,0,.472.391,2.85,2.85,0,0,0,.568.264,2.342,2.342,0,0,0,.775.118,1.427,1.427,0,0,0,.946-.272A.851.851,0,0,0,344.961,100.644Z" transform="translate(0 -11.309)"/><path d="M353.486,95.306v1.485h-2.2v6.215h-1.65V96.791h-2.2V95.306Z" transform="translate(0 -11.309)"/><path d="M356.235,101.191l-.659,1.815h-1.761l3.026-7.7h1.76l3.025,7.7h-1.76l-.66-1.815Zm1.486-3.96-.935,2.53h1.87Z" transform="translate(0 -11.309)"/><path d="M361.956,95.306h1.76l1.979,5.72,1.981-5.72h1.759l-2.86,7.7h-1.76Z" transform="translate(0 -11.309)"/><path d="M376.421,101.521v1.485h-5.776v-7.7h5.665v1.485H372.3v1.54h3.135v1.485H372.3v1.7Z" transform="translate(0 -11.309)"/><path d="M385.989,101.521v1.485h-5.773v-7.7h5.664v1.485h-4.016v1.54H385v1.485h-3.137v1.7Z" transform="translate(0 -11.309)"/><path d="M387.53,95.306h1.65v7.7h-1.65Z" transform="translate(0 -11.309)"/><path d="M396.825,95.306v1.485h-4.016v1.7h3.136v1.485h-3.136v3.025H391.16v-7.7Z" transform="translate(0 -11.309)"/><path d="M403.92,95.306v1.485H399.9v1.7h3.136v1.485H399.9v3.025h-1.649v-7.7Z" transform="translate(0 -11.309)"/><path d="M411.124,101.521v1.485H405.35v-7.7h5.665v1.485H407v1.54h3.136v1.485H407v1.7Z" transform="translate(0 -11.309)"/><path d="M412.664,103.006v-7.7h1.649v6.215h3.576v1.485Z" transform="translate(0 -11.309)"/><path d="M257.017,114.733a1.63,1.63,0,0,0,.66-.135,1.689,1.689,0,0,0,.538-.37,1.8,1.8,0,0,0,.369-.559,1.774,1.774,0,0,0,.138-.708v-4.455h1.649v4.476a3.186,3.186,0,0,1-.253,1.278,3.136,3.136,0,0,1-.7,1.025,3.276,3.276,0,0,1-1.062.684,3.723,3.723,0,0,1-2.672,0,3.265,3.265,0,0,1-1.062-.684,3.121,3.121,0,0,1-.7-1.025,3.186,3.186,0,0,1-.253-1.278v-4.476h1.65v4.455a1.8,1.8,0,0,0,.506,1.267,1.694,1.694,0,0,0,.539.37A1.625,1.625,0,0,0,257.017,114.733Z" transform="translate(0 -11.309)"/><path d="M269.172,108.506v7.7h-1.431l-3.795-4.894v4.894H262.3v-7.7h1.429l3.8,4.9v-4.9Z" transform="translate(0 -11.309)"/><path d="M271.151,108.506H272.8v7.7h-1.651Z" transform="translate(0 -11.309)"/><path d="M274.012,108.506h1.759l1.98,5.72,1.98-5.72h1.76l-2.86,7.7h-1.76Z" transform="translate(0 -11.309)"/><path d="M288.476,114.721v1.485H282.7v-7.7h5.665v1.486h-4.015v1.54h3.135v1.484h-3.135v1.7Z" transform="translate(0 -11.309)"/><path d="M290.017,108.506h3.409a2.817,2.817,0,0,1,1.061.2,2.511,2.511,0,0,1,.836.54,2.494,2.494,0,0,1,.743,1.792,2.292,2.292,0,0,1-.22,1.056,2.935,2.935,0,0,1-.473.694,2.318,2.318,0,0,1-.682.5l1.65,2.915h-1.76l-1.485-2.7h-1.43v2.7h-1.649Zm4.4,2.53a1,1,0,0,0-1.045-1.044h-1.7v2.035h1.7a1.034,1.034,0,0,0,.754-.286A.954.954,0,0,0,294.416,111.036Z" transform="translate(0 -11.309)"/><path d="M301.182,113.844a.6.6,0,0,0-.282-.524,2.749,2.749,0,0,0-.7-.325q-.423-.137-.913-.279a4.1,4.1,0,0,1-.912-.383,2.161,2.161,0,0,1-.7-.633,1.779,1.779,0,0,1-.281-1.055,1.89,1.89,0,0,1,.187-.823,2.011,2.011,0,0,1,.539-.687,2.716,2.716,0,0,1,.853-.467,3.4,3.4,0,0,1,1.116-.173,3.344,3.344,0,0,1,1.111.166,3.956,3.956,0,0,1,.792.363,3.129,3.129,0,0,1,.627.516l-.99,1.019a2.329,2.329,0,0,0-.385-.316,2.6,2.6,0,0,0-.451-.217,1.659,1.659,0,0,0-.594-.1,1.147,1.147,0,0,0-.77.236.707.707,0,0,0-.275.551.593.593,0,0,0,.281.53,2.932,2.932,0,0,0,.7.319c.282.092.587.184.913.278a4.23,4.23,0,0,1,.913.383,2.158,2.158,0,0,1,.7.64,1.784,1.784,0,0,1,.28,1.049,2.167,2.167,0,0,1-.192.912,2.048,2.048,0,0,1-.566.728,2.8,2.8,0,0,1-.914.488,3.925,3.925,0,0,1-1.243.178,3.79,3.79,0,0,1-1.27-.192,4.083,4.083,0,0,1-.907-.435,3.66,3.66,0,0,1-.738-.637l.99-.939a2.334,2.334,0,0,0,.473.392,2.9,2.9,0,0,0,.567.263,2.347,2.347,0,0,0,.775.118,1.422,1.422,0,0,0,.946-.272A.849.849,0,0,0,301.182,113.844Z" transform="translate(0 -11.309)"/><path d="M304.427,108.506h1.649v7.7h-1.649Z" transform="translate(0 -11.309)"/><path d="M313.336,108.506v1.486h-2.2v6.214h-1.65v-6.214h-2.2v-1.486Z" transform="translate(0 -11.309)"/><path d="M320.321,114.721v1.485h-5.775v-7.7h5.665v1.486H316.2v1.54h3.135v1.484H316.2v1.7Zm-2.64-8.8h1.54l-1.21,1.651H316.8Z" transform="translate(0 -11.309)"/><path d="M327.36,108.506a3.017,3.017,0,0,1,1.1.2,2.651,2.651,0,0,1,.874.55,2.511,2.511,0,0,1,.775,1.837,2.561,2.561,0,0,1-.2,1.024,2.431,2.431,0,0,1-.572.819,2.706,2.706,0,0,1-.874.545,3,3,0,0,1-1.1.2h-1.594v2.53h-1.65v-7.7Zm-1.594,1.486v2.2h1.54a1.211,1.211,0,0,0,.457-.088,1.176,1.176,0,0,0,.368-.237,1.124,1.124,0,0,0,.242-.346,1.092,1.092,0,0,0,0-.859,1.136,1.136,0,0,0-.242-.346,1.176,1.176,0,0,0-.368-.237,1.21,1.21,0,0,0-.457-.087Z" transform="translate(0 -11.309)"/><path d="M333.136,114.391l-.66,1.815h-1.76l3.024-7.7H335.5l3.024,7.7h-1.759l-.661-1.815Zm1.485-3.96-.936,2.53h1.871Z" transform="translate(0 -11.309)"/><path d="M339.626,108.506h3.409a2.826,2.826,0,0,1,1.062.2,2.521,2.521,0,0,1,.836.54,2.5,2.5,0,0,1,.743,1.792,2.292,2.292,0,0,1-.221,1.056,2.906,2.906,0,0,1-.473.694,2.314,2.314,0,0,1-.681.5l1.649,2.915h-1.76l-1.485-2.7h-1.43v2.7h-1.649Zm4.4,2.53a1,1,0,0,0-1.045-1.044h-1.705v2.035h1.705a1.034,1.034,0,0,0,.754-.286A.951.951,0,0,0,344.025,111.036Z" transform="translate(0 -11.309)"/><path d="M347.435,108.506h1.651v7.7h-1.651Z" transform="translate(0 -11.309)"/><path d="M354.421,113.844a.6.6,0,0,0-.281-.524,2.757,2.757,0,0,0-.7-.325c-.282-.091-.585-.184-.913-.279a4.125,4.125,0,0,1-.912-.383,2.171,2.171,0,0,1-.7-.633,1.787,1.787,0,0,1-.281-1.055,1.89,1.89,0,0,1,.187-.823,2.011,2.011,0,0,1,.539-.687,2.716,2.716,0,0,1,.853-.467,3.4,3.4,0,0,1,1.116-.173,3.355,3.355,0,0,1,1.112.166,3.982,3.982,0,0,1,.792.363,3.129,3.129,0,0,1,.627.516l-.991,1.019a2.364,2.364,0,0,0-.384-.316,2.616,2.616,0,0,0-.452-.217,1.654,1.654,0,0,0-.593-.1,1.152,1.152,0,0,0-.771.236.706.706,0,0,0-.274.551.592.592,0,0,0,.28.53,2.932,2.932,0,0,0,.7.319c.282.092.587.184.913.278a4.23,4.23,0,0,1,.913.383,2.158,2.158,0,0,1,.7.64,1.784,1.784,0,0,1,.281,1.049,2.168,2.168,0,0,1-.193.912,2.048,2.048,0,0,1-.566.728,2.8,2.8,0,0,1-.913.488,3.933,3.933,0,0,1-1.243.178,3.792,3.792,0,0,1-1.271-.192,4.083,4.083,0,0,1-.907-.435,3.681,3.681,0,0,1-.737-.637l.99-.939a2.327,2.327,0,0,0,.472.392,2.925,2.925,0,0,0,.567.263,2.347,2.347,0,0,0,.775.118,1.42,1.42,0,0,0,.946-.272A.849.849,0,0,0,354.421,113.844Z" transform="translate(0 -11.309)"/><path d="M361.02,113.621h-3.96V112.3h3.96Z" transform="translate(0 -11.309)"/><path d="M368.171,114.721v1.485H362.4v-7.7h5.665v1.486h-4.014v1.54h3.135v1.484h-3.135v1.7Z" transform="translate(0 -11.309)"/><path d="M373.065,113.844a.6.6,0,0,0-.28-.524,2.765,2.765,0,0,0-.7-.325c-.282-.091-.587-.184-.913-.279a4.113,4.113,0,0,1-.913-.383,2.181,2.181,0,0,1-.7-.633,1.787,1.787,0,0,1-.281-1.055,1.9,1.9,0,0,1,.187-.823,2.023,2.023,0,0,1,.539-.687,2.727,2.727,0,0,1,.853-.467,3.414,3.414,0,0,1,1.117-.173,3.342,3.342,0,0,1,1.11.166,3.956,3.956,0,0,1,.792.363,3.129,3.129,0,0,1,.627.516l-.989,1.019a2.337,2.337,0,0,0-.386-.316,2.556,2.556,0,0,0-.45-.217,1.665,1.665,0,0,0-.6-.1,1.143,1.143,0,0,0-.769.236.708.708,0,0,0-.276.551.6.6,0,0,0,.28.53,2.959,2.959,0,0,0,.7.319c.282.092.586.184.913.278a4.21,4.21,0,0,1,.913.383,2.158,2.158,0,0,1,.7.64,1.784,1.784,0,0,1,.28,1.049,2.167,2.167,0,0,1-.192.912,2.04,2.04,0,0,1-.567.728,2.769,2.769,0,0,1-.913.488,3.92,3.92,0,0,1-1.243.178,3.8,3.8,0,0,1-1.27-.192,4.136,4.136,0,0,1-.908-.435,3.681,3.681,0,0,1-.737-.637l.99-.939a2.334,2.334,0,0,0,.473.392,2.9,2.9,0,0,0,.567.263,2.353,2.353,0,0,0,.776.118,1.419,1.419,0,0,0,.945-.272A.848.848,0,0,0,373.065,113.844Z" transform="translate(0 -11.309)"/><path d="M381.59,108.506v1.486h-2.2v6.214H377.74v-6.214h-2.2v-1.486Z" transform="translate(0 -11.309)"/><path d="M388.8,108.5a3.717,3.717,0,0,1,1.4.244,4.655,4.655,0,0,1,1,.529,3.9,3.9,0,0,1,.792.772l-1.045.98a2.892,2.892,0,0,0-.539-.52,3.251,3.251,0,0,0-.671-.358,2.477,2.477,0,0,0-.934-.161,2.716,2.716,0,0,0-1,.18,2.5,2.5,0,0,0-.8.5,2.291,2.291,0,0,0-.725,1.695,2.291,2.291,0,0,0,.725,1.693,2.468,2.468,0,0,0,.8.5,2.953,2.953,0,0,0,1.98.022,3.415,3.415,0,0,0,.7-.356,2.869,2.869,0,0,0,.573-.515l.989.979a4.094,4.094,0,0,1-.814.769,4.994,4.994,0,0,1-1.017.526,3.824,3.824,0,0,1-1.413.241,4.391,4.391,0,0,1-1.656-.306,4.237,4.237,0,0,1-1.326-.831,3.812,3.812,0,0,1-.88-1.227,3.67,3.67,0,0,1,0-2.993,3.823,3.823,0,0,1,.88-1.227,4.237,4.237,0,0,1,1.326-.831A4.411,4.411,0,0,1,388.8,108.5Z" transform="translate(0 -11.309)"/><path d="M393.36,108.506h3.41a2.83,2.83,0,0,1,1.062.2,2.464,2.464,0,0,1,1.38,1.342,2.49,2.49,0,0,1,.2.99,2.292,2.292,0,0,1-.22,1.056,2.935,2.935,0,0,1-.473.694,2.305,2.305,0,0,1-.682.5l1.65,2.915h-1.76l-1.485-2.7h-1.43v2.7h-1.65Zm4.4,2.53a1,1,0,0,0-1.045-1.044h-1.7v2.035h1.7a1.035,1.035,0,0,0,.754-.286A.951.951,0,0,0,397.76,111.036Z" transform="translate(0 -11.309)"/><path d="M406.944,114.721v1.485H401.17v-7.7h5.665v1.486h-4.016v1.54h3.136v1.484h-3.136v1.7Zm-2.639-8.8h1.54l-1.21,1.651h-1.21Z" transform="translate(0 -11.309)"/><path d="M413.764,108.506v1.486h-2.2v6.214h-1.65v-6.214h-2.2v-1.486Z" transform="translate(0 -11.309)"/><path d="M420.749,114.721v1.485h-5.774v-7.7h5.665v1.486h-4.016v1.54h3.136v1.484h-3.136v1.7Z" transform="translate(0 -11.309)"/><path d="M422.289,108.506h1.649v7.7h-1.649Z" transform="translate(0 -11.309)"/><path d="M425.919,116.206v-7.7h1.649v6.215h3.575v1.485Z" transform="translate(0 -11.309)"/><path d="M244.849,20.909v1.62h-6.3v-8.4h6.179v1.62h-4.379V17.43h3.419v1.619h-3.419v1.86Zm-2.88-9.6h1.68l-1.32,1.8h-1.32Z" transform="translate(0 -11.309)"/><path d="M246.049,18.329A3.894,3.894,0,0,1,246.4,16.7a4.162,4.162,0,0,1,.96-1.338,4.606,4.606,0,0,1,1.446-.906,5.033,5.033,0,0,1,3.611,0,4.613,4.613,0,0,1,1.447.9,4.2,4.2,0,0,1,.96,1.338,3.9,3.9,0,0,1,.348,1.632,3.827,3.827,0,0,1-.1.9A4.107,4.107,0,0,1,254.8,20a3.646,3.646,0,0,1-.372.629,4.888,4.888,0,0,1-.426.5,4.591,4.591,0,0,1-1.153.865,1.839,1.839,0,0,0,.48.425,2.764,2.764,0,0,0,.655.295,3.319,3.319,0,0,0,1,.129h.239v1.44h-.359a4.419,4.419,0,0,1-1.65-.274A4.955,4.955,0,0,1,252.1,23.4a4.071,4.071,0,0,1-.864-.882l-.18.024h-.444a4.806,4.806,0,0,1-1.806-.334,4.625,4.625,0,0,1-1.446-.906,4.166,4.166,0,0,1-.96-1.339A3.891,3.891,0,0,1,246.049,18.329Zm1.86.006a2.494,2.494,0,0,0,.21,1.028,2.551,2.551,0,0,0,.576.824,2.647,2.647,0,0,0,.858.548,2.912,2.912,0,0,0,2.111,0,2.652,2.652,0,0,0,.859-.548,2.567,2.567,0,0,0,.576-.824,2.621,2.621,0,0,0,0-2.056,2.589,2.589,0,0,0-.576-.824,2.669,2.669,0,0,0-.859-.548,2.912,2.912,0,0,0-2.111,0,2.664,2.664,0,0,0-.858.548,2.573,2.573,0,0,0-.576.824A2.5,2.5,0,0,0,247.909,18.335Z" transform="translate(0 -11.309)"/><path d="M260.509,20.921a1.784,1.784,0,0,0,.719-.146,1.821,1.821,0,0,0,.588-.4,1.944,1.944,0,0,0,.553-1.382v-4.86h1.8v4.883a3.49,3.49,0,0,1-.276,1.394,3.408,3.408,0,0,1-.768,1.117,3.54,3.54,0,0,1-1.158.747,4.058,4.058,0,0,1-2.916,0,3.529,3.529,0,0,1-1.158-.747,3.393,3.393,0,0,1-.768-1.117,3.472,3.472,0,0,1-.276-1.394V14.129h1.8v4.86a1.955,1.955,0,0,0,.553,1.382,1.821,1.821,0,0,0,.588.4A1.793,1.793,0,0,0,260.509,20.921Z" transform="translate(0 -11.309)"/><path d="M266.268,14.129h1.8v8.4h-1.8Z" transform="translate(0 -11.309)"/><path d="M273.768,14.129a3.25,3.25,0,0,1,1.2.217,2.878,2.878,0,0,1,.954.6,2.739,2.739,0,0,1,.624.9,2.772,2.772,0,0,1,.221,1.1,2.807,2.807,0,0,1-.221,1.116,2.68,2.68,0,0,1-.624.894,2.969,2.969,0,0,1-.954.595,3.29,3.29,0,0,1-1.2.215h-1.74v2.76h-1.8v-8.4Zm-1.74,1.62v2.4h1.681a1.318,1.318,0,0,0,.5-.1,1.288,1.288,0,0,0,.4-.259,1.18,1.18,0,0,0,.265-.378,1.189,1.189,0,0,0,0-.936,1.18,1.18,0,0,0-.265-.378,1.249,1.249,0,0,0-.4-.257,1.281,1.281,0,0,0-.5-.1Z" transform="translate(0 -11.309)"/><path d="M284.688,20.909v1.62h-6.3v-8.4h6.179v1.62h-4.38V17.43h3.42v1.619h-3.42v1.86Z" transform="translate(0 -11.309)"/><path d="M291.948,14.129a4.413,4.413,0,0,1,1.716.33,4.307,4.307,0,0,1,1.368.894,4.186,4.186,0,0,1,0,5.953,4.288,4.288,0,0,1-1.368.893,4.413,4.413,0,0,1-1.716.33h-3.12v-8.4Zm-1.32,1.62v5.16h1.32a2.467,2.467,0,0,0,1.782-.75,2.637,2.637,0,0,0,.54-.822,2.561,2.561,0,0,0,.2-1.008,2.64,2.64,0,0,0-.721-1.83,2.393,2.393,0,0,0-.8-.552,2.51,2.51,0,0,0-1-.2Z" transform="translate(0 -11.309)"/><path d="M304.248,20.909v1.62h-6.3v-8.4h6.18v1.62h-4.38V17.43h3.42v1.619h-3.42v1.86Z" transform="translate(0 -11.309)"/><path d="M308.389,14.129h3.719a3.049,3.049,0,0,1,1.159.217,2.671,2.671,0,0,1,1.5,1.463,2.714,2.714,0,0,1,.216,1.081,2.5,2.5,0,0,1-.24,1.151,3.193,3.193,0,0,1-.516.756,2.492,2.492,0,0,1-.744.552l1.8,3.18h-1.92l-1.62-2.94h-1.56v2.94h-1.8Zm4.8,2.761a1.09,1.09,0,0,0-1.139-1.141h-1.861V17.97h1.861a1.122,1.122,0,0,0,.821-.313A1.033,1.033,0,0,0,313.188,16.89Z" transform="translate(0 -11.309)"/><path d="M323.208,20.909v1.62h-6.3v-8.4h6.18v1.62h-4.38V17.43h3.42v1.619h-3.42v1.86Z" transform="translate(0 -11.309)"/><path d="M328.969,14.117a4.068,4.068,0,0,1,1.529.265,5.107,5.107,0,0,1,1.086.578,4.3,4.3,0,0,1,.864.843l-1.139,1.068a3.16,3.16,0,0,0-.588-.566,3.553,3.553,0,0,0-.733-.392,2.7,2.7,0,0,0-1.019-.176,2.982,2.982,0,0,0-1.093.2,2.712,2.712,0,0,0-.876.547,2.529,2.529,0,0,0-.582.823,2.606,2.606,0,0,0,0,2.05,2.533,2.533,0,0,0,.582.824,2.709,2.709,0,0,0,.876.546,3.239,3.239,0,0,0,2.16.023,3.669,3.669,0,0,0,.769-.389,3.151,3.151,0,0,0,.624-.562l1.08,1.069a4.417,4.417,0,0,1-.889.838,5.406,5.406,0,0,1-1.109.575,4.194,4.194,0,0,1-1.542.263,4.812,4.812,0,0,1-1.807-.334,4.608,4.608,0,0,1-1.445-.906,4.151,4.151,0,0,1-.96-1.339,3.995,3.995,0,0,1,0-3.266,4.147,4.147,0,0,1,.96-1.338,4.59,4.59,0,0,1,1.445-.906A4.792,4.792,0,0,1,328.969,14.117Z" transform="translate(0 -11.309)"/><path d="M341.148,22.529h-1.8v-3.42h-3.6v3.42h-1.8v-8.4h1.8v3.36h3.6v-3.36h1.8Z" transform="translate(0 -11.309)"/><path d="M349.608,20.909v1.62h-6.3v-8.4h6.179v1.62h-4.38V17.43h3.42v1.619h-3.42v1.86Z" transform="translate(0 -11.309)"/><path d="M351.288,14.129h3.72a3.04,3.04,0,0,1,1.158.217,2.714,2.714,0,0,1,1.723,2.544,2.488,2.488,0,0,1-.241,1.151,3.193,3.193,0,0,1-.516.756,2.513,2.513,0,0,1-.743.552l1.8,3.18h-1.92l-1.62-2.94h-1.56v2.94h-1.8Zm4.8,2.761a1.09,1.09,0,0,0-1.14-1.141h-1.86V17.97h1.86a1.123,1.123,0,0,0,.822-.313A1.033,1.033,0,0,0,356.088,16.89Z" transform="translate(0 -11.309)"/><path d="M363.889,14.117a4.068,4.068,0,0,1,1.529.265,5.082,5.082,0,0,1,1.086.578,4.246,4.246,0,0,1,.864.843l-1.14,1.068a3.154,3.154,0,0,0-.587-.566,3.553,3.553,0,0,0-.733-.392,2.7,2.7,0,0,0-1.019-.176,2.982,2.982,0,0,0-1.093.2,2.712,2.712,0,0,0-.876.547,2.541,2.541,0,0,0,0,3.7,2.709,2.709,0,0,0,.876.546,3.239,3.239,0,0,0,2.16.023,3.669,3.669,0,0,0,.769-.389,3.123,3.123,0,0,0,.624-.562l1.08,1.069a4.411,4.411,0,0,1-.888.838,5.416,5.416,0,0,1-1.11.575,4.194,4.194,0,0,1-1.542.263,4.812,4.812,0,0,1-1.807-.334,4.608,4.608,0,0,1-1.445-.906,4.136,4.136,0,0,1-.96-1.339,3.995,3.995,0,0,1,0-3.266,4.132,4.132,0,0,1,.96-1.338,4.59,4.59,0,0,1,1.445-.906A4.792,4.792,0,0,1,363.889,14.117Z" transform="translate(0 -11.309)"/><path d="M376.068,22.529h-1.8v-3.42h-3.6v3.42h-1.8v-8.4h1.8v3.36h3.6v-3.36h1.8Z" transform="translate(0 -11.309)"/><path d="M384.528,20.909v1.62h-6.3v-8.4h6.18v1.62h-4.38V17.43h3.42v1.619h-3.42v1.86Z" transform="translate(0 -11.309)"/><path d="M392.328,19.952a.65.65,0,0,0-.307-.572,3.012,3.012,0,0,0-.767-.355c-.308-.1-.641-.2-1-.3a4.6,4.6,0,0,1-1-.417,2.385,2.385,0,0,1-.768-.693,1.941,1.941,0,0,1-.307-1.149,2.068,2.068,0,0,1,.2-.9,2.19,2.19,0,0,1,.587-.749,2.929,2.929,0,0,1,.931-.509,4.093,4.093,0,0,1,2.43-.009,4.387,4.387,0,0,1,.864.4,3.464,3.464,0,0,1,.684.564l-1.08,1.112a2.526,2.526,0,0,0-.42-.346,2.806,2.806,0,0,0-.493-.236,1.8,1.8,0,0,0-.647-.109,1.251,1.251,0,0,0-.84.256.776.776,0,0,0-.3.6.65.65,0,0,0,.307.578,3.2,3.2,0,0,0,.768.349q.462.149,1,.3a4.64,4.64,0,0,1,1,.417,2.355,2.355,0,0,1,.767.7,1.946,1.946,0,0,1,.307,1.143,2.351,2.351,0,0,1-.21.995,2.238,2.238,0,0,1-.618.8,3.035,3.035,0,0,1-1,.533,4.337,4.337,0,0,1-1.356.194,4.131,4.131,0,0,1-1.386-.21,4.514,4.514,0,0,1-.991-.474,3.992,3.992,0,0,1-.8-.7l1.08-1.023a2.585,2.585,0,0,0,.516.427,3.072,3.072,0,0,0,.617.286,2.525,2.525,0,0,0,.847.13,1.543,1.543,0,0,0,1.031-.3A.923.923,0,0,0,392.328,19.952Z" transform="translate(0 -11.309)"/><path d="M399.468,20.921a1.793,1.793,0,0,0,.72-.146,1.831,1.831,0,0,0,.588-.4,1.949,1.949,0,0,0,.552-1.382v-4.86h1.8v4.883a3.49,3.49,0,0,1-.276,1.394,3.408,3.408,0,0,1-.768,1.117,3.54,3.54,0,0,1-1.158.747,4.058,4.058,0,0,1-2.916,0,3.54,3.54,0,0,1-1.158-.747,3.408,3.408,0,0,1-.768-1.117,3.49,3.49,0,0,1-.276-1.394V14.129h1.8v4.86a1.949,1.949,0,0,0,.552,1.382,1.831,1.831,0,0,0,.588.4A1.793,1.793,0,0,0,399.468,20.921Z" transform="translate(0 -11.309)"/><path d="M405.228,14.129h3.72a3.04,3.04,0,0,1,1.158.217,2.677,2.677,0,0,1,1.506,1.463,2.7,2.7,0,0,1,.216,1.081,2.514,2.514,0,0,1-.239,1.151,3.165,3.165,0,0,1-.517.756,2.5,2.5,0,0,1-.744.552l1.8,3.18h-1.921l-1.619-2.94h-1.561v2.94h-1.8Zm4.8,2.761a1.09,1.09,0,0,0-1.139-1.141h-1.861V17.97h1.861a1.122,1.122,0,0,0,.821-.313A1.033,1.033,0,0,0,410.028,16.89Z" transform="translate(0 -11.309)"/><path d="M416.208,22.529v-8.4h1.8v6.78h3.9v1.62Z" transform="translate(0 -11.309)"/><path d="M425.088,14.669l-1.62,2.58-1.02-.6,1.26-2.759Z" transform="translate(0 -11.309)"/><path d="M430.008,20.921a1.793,1.793,0,0,0,.72-.146,1.831,1.831,0,0,0,.588-.4,1.949,1.949,0,0,0,.552-1.382v-4.86h1.8v4.883a3.506,3.506,0,0,1-.275,1.394,3.426,3.426,0,0,1-.769,1.117,3.54,3.54,0,0,1-1.158.747,4.058,4.058,0,0,1-2.916,0,3.525,3.525,0,0,1-1.157-.747,3.4,3.4,0,0,1-.769-1.117,3.49,3.49,0,0,1-.276-1.394V14.129h1.8v4.86a1.949,1.949,0,0,0,.552,1.382,1.831,1.831,0,0,0,.588.4A1.793,1.793,0,0,0,430.008,20.921Z" transform="translate(0 -11.309)"/><path d="M441.528,14.129v1.62h-2.4v6.78h-1.8v-6.78h-2.4v-1.62Z" transform="translate(0 -11.309)"/><path d="M442.849,14.129h1.8v8.4h-1.8Z" transform="translate(0 -11.309)"/><path d="M446.809,22.529v-8.4h1.8v6.78h3.9v1.62Z" transform="translate(0 -11.309)"/><path d="M453.889,14.129h1.8v8.4h-1.8Z" transform="translate(0 -11.309)"/><path d="M461.509,19.952a.652.652,0,0,0-.307-.572,3,3,0,0,0-.768-.355c-.307-.1-.64-.2-1-.3a4.64,4.64,0,0,1-1-.417,2.392,2.392,0,0,1-.767-.693,1.941,1.941,0,0,1-.307-1.149,2.067,2.067,0,0,1,.2-.9,2.193,2.193,0,0,1,.588-.749,2.918,2.918,0,0,1,.931-.509,4.09,4.09,0,0,1,2.429-.009,4.425,4.425,0,0,1,.865.4,3.457,3.457,0,0,1,.683.564l-1.08,1.112a2.486,2.486,0,0,0-.42-.346,2.794,2.794,0,0,0-.492-.236,1.8,1.8,0,0,0-.647-.109,1.25,1.25,0,0,0-.84.256.776.776,0,0,0-.3.6.65.65,0,0,0,.307.578,3.214,3.214,0,0,0,.767.349q.463.149,1,.3a4.6,4.6,0,0,1,1,.417,2.348,2.348,0,0,1,.768.7,1.946,1.946,0,0,1,.307,1.143,2.366,2.366,0,0,1-.21.995,2.238,2.238,0,0,1-.618.8,3.03,3.03,0,0,1-1,.533,4.326,4.326,0,0,1-1.355.194,4.141,4.141,0,0,1-1.387-.21,4.527,4.527,0,0,1-.99-.474,4,4,0,0,1-.8-.7l1.08-1.023a2.621,2.621,0,0,0,.517.427,3.072,3.072,0,0,0,.617.286,2.521,2.521,0,0,0,.847.13,1.543,1.543,0,0,0,1.031-.3A.923.923,0,0,0,461.509,19.952Z" transform="translate(0 -11.309)"/><path d="M466.728,20.549l-.719,1.98h-1.92l3.3-8.4h1.92l3.3,8.4h-1.92l-.719-1.98Zm1.621-4.32-1.02,2.76h2.04Z" transform="translate(0 -11.309)"/><path d="M479.568,14.129v1.62h-2.4v6.78h-1.8v-6.78h-2.4v-1.62Z" transform="translate(0 -11.309)"/><path d="M480.889,14.129h1.8v8.4h-1.8Z" transform="translate(0 -11.309)"/><path d="M484.368,18.329a3.9,3.9,0,0,1,.349-1.633,4.132,4.132,0,0,1,.96-1.338,4.6,4.6,0,0,1,1.445-.906,5.036,5.036,0,0,1,3.612,0,4.623,4.623,0,0,1,1.447.906,4.177,4.177,0,0,1,.96,1.338,4.016,4.016,0,0,1,0,3.266,4.181,4.181,0,0,1-.96,1.339,4.641,4.641,0,0,1-1.447.906,5.05,5.05,0,0,1-3.612,0,4.62,4.62,0,0,1-1.445-.906,4.136,4.136,0,0,1-.96-1.339A3.892,3.892,0,0,1,484.368,18.329Zm1.86,0a2.512,2.512,0,0,0,.21,1.025,2.549,2.549,0,0,0,.577.824,2.665,2.665,0,0,0,.857.546,2.929,2.929,0,0,0,2.112,0,2.674,2.674,0,0,0,.859-.546,2.578,2.578,0,0,0,.576-.824,2.606,2.606,0,0,0,0-2.05,2.573,2.573,0,0,0-.576-.823,2.677,2.677,0,0,0-.859-.547,2.929,2.929,0,0,0-2.112,0,2.668,2.668,0,0,0-.857.547,2.545,2.545,0,0,0-.577.823A2.512,2.512,0,0,0,486.228,18.329Z" transform="translate(0 -11.309)"/><path d="M502.668,14.129v8.4h-1.561l-4.139-5.34v5.34h-1.8v-8.4h1.559l4.141,5.341V14.129Z" transform="translate(0 -11.309)"/><path d="M241.669,28.529a4.435,4.435,0,0,1,1.716.33,4.31,4.31,0,0,1,1.368.895,4.186,4.186,0,0,1,0,5.952,4.271,4.271,0,0,1-1.368.893,4.417,4.417,0,0,1-1.716.331h-3.12v-8.4Zm-1.32,1.62v5.16h1.32a2.471,2.471,0,0,0,1.782-.75,2.643,2.643,0,0,0,.54-.822,2.571,2.571,0,0,0,.2-1.008,2.638,2.638,0,0,0-.72-1.83,2.386,2.386,0,0,0-.8-.551,2.517,2.517,0,0,0-1-.2Z" transform="translate(0 -11.309)"/><path d="M253.969,35.309V36.93h-6.3v-8.4h6.18v1.62h-4.38V31.83h3.42v1.619h-3.42v1.86Z" transform="translate(0 -11.309)"/><path d="M259.309,34.352A.652.652,0,0,0,259,33.78a2.986,2.986,0,0,0-.768-.354q-.462-.15-1-.3a4.59,4.59,0,0,1-1-.417,2.372,2.372,0,0,1-.768-.692,1.944,1.944,0,0,1-.306-1.15,2.065,2.065,0,0,1,.2-.9,2.193,2.193,0,0,1,.588-.749,2.925,2.925,0,0,1,.93-.51,4.093,4.093,0,0,1,2.43-.009,4.328,4.328,0,0,1,.864.4,3.46,3.46,0,0,1,.684.563l-1.08,1.112a2.561,2.561,0,0,0-.42-.345,2.9,2.9,0,0,0-.492-.237,1.812,1.812,0,0,0-.648-.109,1.248,1.248,0,0,0-.84.257.773.773,0,0,0-.3.6.651.651,0,0,0,.306.579,3.2,3.2,0,0,0,.768.348c.308.1.64.2,1,.3a4.593,4.593,0,0,1,1,.418,2.355,2.355,0,0,1,.768.7,1.948,1.948,0,0,1,.306,1.144,2.357,2.357,0,0,1-.21,1,2.233,2.233,0,0,1-.618.8,3.031,3.031,0,0,1-1,.532,4.312,4.312,0,0,1-1.356.194,4.131,4.131,0,0,1-1.386-.21,4.484,4.484,0,0,1-.99-.473,4,4,0,0,1-.8-.7l1.08-1.023a2.589,2.589,0,0,0,.516.428,3.2,3.2,0,0,0,.618.286,2.515,2.515,0,0,0,.846.13,1.555,1.555,0,0,0,1.032-.3A.927.927,0,0,0,259.309,34.352Z" transform="translate(0 -11.309)"/><path d="M268.429,28.529a4.427,4.427,0,0,1,1.715.33,4.3,4.3,0,0,1,1.369.895,4.186,4.186,0,0,1,0,5.952,4.265,4.265,0,0,1-1.369.893,4.409,4.409,0,0,1-1.715.331h-3.12v-8.4Zm-1.321,1.62v5.16h1.321a2.471,2.471,0,0,0,1.782-.75,2.661,2.661,0,0,0,.54-.822,2.553,2.553,0,0,0,.2-1.008,2.625,2.625,0,0,0-.192-1.007,2.653,2.653,0,0,0-.529-.823,2.372,2.372,0,0,0-.8-.551,2.517,2.517,0,0,0-1-.2Z" transform="translate(0 -11.309)"/><path d="M273.949,32.729A3.886,3.886,0,0,1,274.3,31.1a4.162,4.162,0,0,1,.96-1.338,4.6,4.6,0,0,1,1.446-.907,5.033,5.033,0,0,1,3.611,0,4.614,4.614,0,0,1,1.447.907,4.177,4.177,0,0,1,.96,1.338,4,4,0,0,1,0,3.265,4.181,4.181,0,0,1-.96,1.339,4.611,4.611,0,0,1-1.447.906,5.047,5.047,0,0,1-3.611,0,4.6,4.6,0,0,1-1.446-.906,4.166,4.166,0,0,1-.96-1.339A3.887,3.887,0,0,1,273.949,32.729Zm1.86,0a2.517,2.517,0,0,0,.209,1.026,2.576,2.576,0,0,0,.577.823,2.67,2.67,0,0,0,.858.546,2.926,2.926,0,0,0,2.111,0,2.664,2.664,0,0,0,.859-.546,2.573,2.573,0,0,0,.576-.823,2.609,2.609,0,0,0,0-2.051,2.569,2.569,0,0,0-.576-.822,2.649,2.649,0,0,0-.859-.547,2.926,2.926,0,0,0-2.111,0,2.655,2.655,0,0,0-.858.547,2.572,2.572,0,0,0-.577.822A2.512,2.512,0,0,0,275.809,32.729Z" transform="translate(0 -11.309)"/><path d="M292.249,28.529v8.4h-1.561l-4.139-5.34v5.34h-1.8v-8.4h1.56l4.139,5.341V28.529Z" transform="translate(0 -11.309)"/><path d="M301.909,28.529v8.4h-1.56l-4.14-5.34v5.34h-1.8v-8.4h1.56l4.139,5.341V28.529Z" transform="translate(0 -11.309)"/><path d="M310.369,35.309V36.93h-6.3v-8.4h6.18v1.62h-4.38V31.83h3.42v1.619h-3.42v1.86Zm-2.88-9.6h1.68l-1.32,1.8h-1.32Z" transform="translate(0 -11.309)"/><path d="M318.349,35.309V36.93h-6.3v-8.4h6.179v1.62h-4.379V31.83h3.419v1.619h-3.419v1.86Z" transform="translate(0 -11.309)"/><path d="M323.689,34.352a.652.652,0,0,0-.306-.572,2.986,2.986,0,0,0-.768-.354q-.462-.15-1-.3a4.59,4.59,0,0,1-1-.417,2.386,2.386,0,0,1-.769-.692,1.951,1.951,0,0,1-.305-1.15,2.065,2.065,0,0,1,.2-.9,2.193,2.193,0,0,1,.588-.749,2.931,2.931,0,0,1,.929-.51A4.1,4.1,0,0,1,323.7,28.7a4.328,4.328,0,0,1,.864.4,3.46,3.46,0,0,1,.684.563l-1.08,1.112a2.561,2.561,0,0,0-.42-.345,2.9,2.9,0,0,0-.492-.237,1.812,1.812,0,0,0-.648-.109,1.253,1.253,0,0,0-.841.257.774.774,0,0,0-.3.6.651.651,0,0,0,.306.579,3.186,3.186,0,0,0,.768.348c.308.1.64.2,1,.3a4.635,4.635,0,0,1,1,.418,2.355,2.355,0,0,1,.768.7,1.948,1.948,0,0,1,.306,1.144,2.357,2.357,0,0,1-.21,1,2.233,2.233,0,0,1-.618.8,3.031,3.031,0,0,1-1,.532,4.312,4.312,0,0,1-1.356.194,4.131,4.131,0,0,1-1.386-.21,4.484,4.484,0,0,1-.99-.473,4,4,0,0,1-.8-.7l1.08-1.023a2.561,2.561,0,0,0,.516.428,3.2,3.2,0,0,0,.618.286,2.515,2.515,0,0,0,.846.13,1.555,1.555,0,0,0,1.032-.3A.927.927,0,0,0,323.689,34.352Z" transform="translate(0 -11.309)"/><path d="M329.688,28.529h1.8v8.4h-1.8Z" transform="translate(0 -11.309)"/><path d="M341.148,28.529v8.4h-1.559l-4.141-5.34v5.34h-1.8v-8.4h1.561l4.14,5.341V28.529Z" transform="translate(0 -11.309)"/><path d="M346.429,28.529a4.434,4.434,0,0,1,1.715.33,4.325,4.325,0,0,1,1.369.895,4.189,4.189,0,0,1,0,5.952,4.287,4.287,0,0,1-1.369.893,4.416,4.416,0,0,1-1.715.331h-3.12v-8.4Zm-1.321,1.62v5.16h1.321a2.471,2.471,0,0,0,1.781-.75,2.643,2.643,0,0,0,.54-.822,2.553,2.553,0,0,0,.2-1.008,2.638,2.638,0,0,0-.72-1.83,2.382,2.382,0,0,0-.8-.551,2.524,2.524,0,0,0-1-.2Z" transform="translate(0 -11.309)"/><path d="M352.429,28.529h1.8v8.4h-1.8Z" transform="translate(0 -11.309)"/><path d="M355.549,28.529h1.92l2.159,6.24,2.16-6.24h1.92l-3.12,8.4h-1.92Z" transform="translate(0 -11.309)"/><path d="M365.028,28.529h1.8v8.4h-1.8Z" transform="translate(0 -11.309)"/><path d="M372.108,28.529a4.432,4.432,0,0,1,1.716.33,4.3,4.3,0,0,1,1.368.895,4.183,4.183,0,0,1,0,5.952,4.26,4.26,0,0,1-1.368.893,4.414,4.414,0,0,1-1.716.331h-3.12v-8.4Zm-1.32,1.62v5.16h1.32a2.476,2.476,0,0,0,1.783-.75,2.679,2.679,0,0,0,.54-.822,2.57,2.57,0,0,0,.2-1.008,2.638,2.638,0,0,0-.72-1.83,2.376,2.376,0,0,0-.8-.551,2.517,2.517,0,0,0-1-.2Z" transform="translate(0 -11.309)"/><path d="M381.708,35.321a1.817,1.817,0,0,0,.721-.145,1.861,1.861,0,0,0,.588-.405,1.984,1.984,0,0,0,.4-.609,1.943,1.943,0,0,0,.15-.772V28.529h1.8v4.883a3.511,3.511,0,0,1-.275,1.4,3.447,3.447,0,0,1-.769,1.117,3.572,3.572,0,0,1-1.158.747,4.072,4.072,0,0,1-2.916,0,3.568,3.568,0,0,1-1.157-.747,3.432,3.432,0,0,1-.769-1.117,3.512,3.512,0,0,1-.276-1.4V28.529h1.8V33.39a1.943,1.943,0,0,0,.149.772,1.987,1.987,0,0,0,.4.609,1.861,1.861,0,0,0,.588.405A1.809,1.809,0,0,0,381.708,35.321Z" transform="translate(0 -11.309)"/><path d="M393.768,35.309V36.93h-6.3v-8.4h6.179v1.62h-4.38V31.83h3.42v1.619h-3.42v1.86Z" transform="translate(0 -11.309)"/><path d="M395.448,36.93v-8.4h1.8v6.78h3.9V36.93Z" transform="translate(0 -11.309)"/><path d="M402.528,36.93v-8.4h1.8v6.78h3.9V36.93Z" transform="translate(0 -11.309)"/><path d="M415.908,35.309V36.93h-6.3v-8.4h6.18v1.62h-4.38V31.83h3.42v1.619h-3.42v1.86Z" transform="translate(0 -11.309)"/><path d="M421.248,34.352a.653.653,0,0,0-.307-.572,2.978,2.978,0,0,0-.767-.354c-.308-.1-.641-.2-1-.3a4.549,4.549,0,0,1-1-.417,2.382,2.382,0,0,1-.768-.692,1.944,1.944,0,0,1-.307-1.15,2.08,2.08,0,0,1,.2-.9,2.193,2.193,0,0,1,.588-.749,2.931,2.931,0,0,1,.931-.51,4.093,4.093,0,0,1,2.43-.009,4.355,4.355,0,0,1,.864.4,3.46,3.46,0,0,1,.684.563l-1.081,1.112a2.473,2.473,0,0,0-.419-.345,2.877,2.877,0,0,0-.493-.237,1.8,1.8,0,0,0-.647-.109,1.246,1.246,0,0,0-.84.257.774.774,0,0,0-.3.6.652.652,0,0,0,.307.579,3.214,3.214,0,0,0,.767.348c.309.1.641.2,1,.3a4.593,4.593,0,0,1,1,.418,2.352,2.352,0,0,1,.767.7,1.948,1.948,0,0,1,.307,1.144,2.357,2.357,0,0,1-.21,1,2.256,2.256,0,0,1-.618.8,3.052,3.052,0,0,1-1,.532,4.308,4.308,0,0,1-1.356.194,4.141,4.141,0,0,1-1.387-.21,4.528,4.528,0,0,1-.99-.473,4,4,0,0,1-.8-.7l1.08-1.023a2.589,2.589,0,0,0,.516.428,3.187,3.187,0,0,0,.617.286,2.525,2.525,0,0,0,.847.13,1.549,1.549,0,0,0,1.031-.3A.925.925,0,0,0,421.248,34.352Z" transform="translate(0 -11.309)"/><path d="M433.548,35.309V36.93h-6.3v-8.4h6.18v1.62h-4.38V31.83h3.42v1.619h-3.42v1.86Z" transform="translate(0 -11.309)"/><path d="M442.727,28.529v8.4h-1.56l-4.14-5.34v5.34h-1.8v-8.4h1.56l4.141,5.341V28.529Z" transform="translate(0 -11.309)"/><path d="M447.348,36.93v-8.4h1.8v6.78h3.9V36.93Z" transform="translate(0 -11.309)"/><path d="M454.428,28.529h1.8v8.4h-1.8Z" transform="translate(0 -11.309)"/><path d="M464.687,35.309V36.93h-6.3v-8.4h6.179v1.62h-4.38V31.83h3.42v1.619h-3.42v1.86Z" transform="translate(0 -11.309)"/><path d="M473.867,28.529v8.4h-1.56l-4.14-5.34v5.34h-1.8v-8.4h1.56l4.14,5.341V28.529Z" transform="translate(0 -11.309)"/><path d="M240.228,49.349l-.719,1.98h-1.92l3.3-8.4h1.92l3.3,8.4h-1.92l-.72-1.98Zm1.621-4.32-1.02,2.76h2.04Z" transform="translate(0 -11.309)"/><path d="M246.469,42.929h1.92l2.159,6.24,2.16-6.24h1.92l-3.12,8.4h-1.92Z" transform="translate(0 -11.309)"/><path d="M262.248,49.709v1.62h-6.3v-8.4h6.18v1.62h-4.38v1.68h3.42v1.62h-3.42v1.86Z" transform="translate(0 -11.309)"/><path d="M268.009,42.917a4.068,4.068,0,0,1,1.529.265,5.082,5.082,0,0,1,1.086.578,4.32,4.32,0,0,1,.864.842l-1.139,1.069a3.165,3.165,0,0,0-.588-.567,3.6,3.6,0,0,0-.733-.391,2.7,2.7,0,0,0-1.019-.176,2.961,2.961,0,0,0-1.093.2,2.712,2.712,0,0,0-.876.547,2.535,2.535,0,0,0-.582.822,2.539,2.539,0,0,0,.582,2.874,2.693,2.693,0,0,0,.876.546,3.231,3.231,0,0,0,2.16.024,3.669,3.669,0,0,0,.769-.389,3.151,3.151,0,0,0,.624-.562l1.08,1.069a4.446,4.446,0,0,1-.889.838,5.406,5.406,0,0,1-1.109.575,4.194,4.194,0,0,1-1.542.263,4.831,4.831,0,0,1-1.807-.334,4.611,4.611,0,0,1-1.445-.907,4.147,4.147,0,0,1-.96-1.338,3.995,3.995,0,0,1,0-3.266,4.147,4.147,0,0,1,.96-1.338,4.572,4.572,0,0,1,1.445-.906A4.792,4.792,0,0,1,268.009,42.917Z" transform="translate(0 -11.309)"/><path d="M275.448,51.329v-8.4h1.8v6.78h3.9v1.62Z" transform="translate(0 -11.309)"/><path d="M284.208,49.349l-.72,1.98h-1.92l3.3-8.4h1.92l3.3,8.4h-1.92l-.721-1.98Zm1.62-4.32-1.019,2.76h2.04Z" transform="translate(0 -11.309)"/><path d="M299.508,42.929v1.62h-2.4v6.78h-1.8v-6.78h-2.4v-1.62Z" transform="translate(0 -11.309)"/><path d="M308.028,51.329h-1.8v-3.42h-3.6v3.42h-1.8v-8.4h1.8v3.36h3.6v-3.36h1.8Z" transform="translate(0 -11.309)"/><path d="M316.488,49.709v1.62h-6.3v-8.4h6.18v1.62h-4.38v1.68h3.42v1.62h-3.42v1.86Zm-2.88-9.6h1.68l-1.32,1.8h-1.32Z" transform="translate(0 -11.309)"/><path d="M317.688,47.129a3.91,3.91,0,0,1,.348-1.633,4.162,4.162,0,0,1,.96-1.338,4.588,4.588,0,0,1,1.446-.906,5.036,5.036,0,0,1,3.612,0,4.588,4.588,0,0,1,1.446.906,4.177,4.177,0,0,1,.96,1.338,3.995,3.995,0,0,1,0,3.266,4.177,4.177,0,0,1-.96,1.338,4.627,4.627,0,0,1-1.446.907,5.05,5.05,0,0,1-3.612,0A4.627,4.627,0,0,1,319,50.1a4.162,4.162,0,0,1-.96-1.338A3.906,3.906,0,0,1,317.688,47.129Zm1.86,0a2.5,2.5,0,0,0,.21,1.025,2.547,2.547,0,0,0,.576.823,2.653,2.653,0,0,0,.858.546,2.915,2.915,0,0,0,2.112,0,2.653,2.653,0,0,0,.858-.546,2.547,2.547,0,0,0,.576-.823,2.609,2.609,0,0,0,0-2.051,2.564,2.564,0,0,0-.576-.822,2.672,2.672,0,0,0-.858-.547,2.929,2.929,0,0,0-2.112,0,2.672,2.672,0,0,0-.858.547,2.564,2.564,0,0,0-.576.822A2.5,2.5,0,0,0,319.548,47.129Z" transform="translate(0 -11.309)"/><path d="M328.488,42.929h3.72a3.059,3.059,0,0,1,1.158.216,2.682,2.682,0,0,1,1.506,1.464,2.712,2.712,0,0,1,.216,1.08,2.5,2.5,0,0,1-.24,1.152,3.223,3.223,0,0,1-.516.756,2.5,2.5,0,0,1-.744.552l1.8,3.18h-1.92l-1.62-2.94h-1.56v2.94h-1.8Zm4.8,2.76a1.09,1.09,0,0,0-1.14-1.14h-1.86v2.22h1.86a1.124,1.124,0,0,0,.822-.312A1.034,1.034,0,0,0,333.288,45.689Z" transform="translate(0 -11.309)"/><path d="M337.008,42.929h1.8v8.4h-1.8Z" transform="translate(0 -11.309)"/><path d="M347.268,49.709v1.62h-6.3v-8.4h6.179v1.62h-4.379v1.68h3.419v1.62h-3.419v1.86Z" transform="translate(0 -11.309)"/><path d="M357.708,49.709v1.62h-6.3v-8.4h6.18v1.62h-4.38v1.68h3.42v1.62h-3.42v1.86Zm-2.88-9.6h1.68l-1.321,1.8h-1.319Z" transform="translate(0 -11.309)"/><path d="M363.468,42.917a4.074,4.074,0,0,1,1.53.265,5.107,5.107,0,0,1,1.086.578,4.262,4.262,0,0,1,.863.842l-1.138,1.069a3.2,3.2,0,0,0-.589-.567,3.618,3.618,0,0,0-.732-.391,2.7,2.7,0,0,0-1.02-.176,2.96,2.96,0,0,0-1.092.2,2.712,2.712,0,0,0-.876.547,2.52,2.52,0,0,0-.582.822,2.539,2.539,0,0,0,.582,2.874,2.693,2.693,0,0,0,.876.546,2.96,2.96,0,0,0,1.092.2,2.993,2.993,0,0,0,1.068-.174,3.66,3.66,0,0,0,.768-.389,3.1,3.1,0,0,0,.624-.562l1.08,1.069a4.413,4.413,0,0,1-.888.838,5.39,5.39,0,0,1-1.11.575,4.19,4.19,0,0,1-1.542.263,4.826,4.826,0,0,1-1.806-.334,4.615,4.615,0,0,1-1.446-.907,4.162,4.162,0,0,1-.96-1.338,4.005,4.005,0,0,1,0-3.266,4.162,4.162,0,0,1,.96-1.338,4.577,4.577,0,0,1,1.446-.906A4.787,4.787,0,0,1,363.468,42.917Z" transform="translate(0 -11.309)"/><path d="M367.968,47.129a3.91,3.91,0,0,1,.348-1.633,4.162,4.162,0,0,1,.96-1.338,4.588,4.588,0,0,1,1.446-.906,5.036,5.036,0,0,1,3.612,0,4.588,4.588,0,0,1,1.446.906,4.162,4.162,0,0,1,.96,1.338,4.005,4.005,0,0,1,0,3.266,4.162,4.162,0,0,1-.96,1.338,4.627,4.627,0,0,1-1.446.907,5.05,5.05,0,0,1-3.612,0,4.627,4.627,0,0,1-1.446-.907,4.162,4.162,0,0,1-.96-1.338A3.906,3.906,0,0,1,367.968,47.129Zm1.86,0a2.5,2.5,0,0,0,.21,1.025,2.547,2.547,0,0,0,.576.823,2.642,2.642,0,0,0,.858.546,2.915,2.915,0,0,0,2.112,0,2.653,2.653,0,0,0,.858-.546,2.547,2.547,0,0,0,.576-.823,2.609,2.609,0,0,0,0-2.051,2.564,2.564,0,0,0-.576-.822,2.672,2.672,0,0,0-.858-.547,2.929,2.929,0,0,0-2.112,0,2.661,2.661,0,0,0-.858.547,2.564,2.564,0,0,0-.576.822A2.5,2.5,0,0,0,369.828,47.129Z" transform="translate(0 -11.309)"/><path d="M386.268,42.929v8.4h-1.561l-4.14-5.34v5.34h-1.8v-8.4h1.559l4.141,5.34v-5.34Z" transform="translate(0 -11.309)"/><path d="M387.947,47.129A3.9,3.9,0,0,1,388.3,45.5a4.147,4.147,0,0,1,.96-1.338,4.584,4.584,0,0,1,1.445-.906,5.036,5.036,0,0,1,3.612,0,4.6,4.6,0,0,1,1.447.906,4.177,4.177,0,0,1,.96,1.338,4.016,4.016,0,0,1,0,3.266,4.177,4.177,0,0,1-.96,1.338,4.643,4.643,0,0,1-1.447.907,5.05,5.05,0,0,1-3.612,0,4.622,4.622,0,0,1-1.445-.907,4.147,4.147,0,0,1-.96-1.338A3.892,3.892,0,0,1,387.947,47.129Zm1.861,0a2.5,2.5,0,0,0,.21,1.025,2.532,2.532,0,0,0,.576.823,2.648,2.648,0,0,0,.857.546,2.915,2.915,0,0,0,2.112,0,2.647,2.647,0,0,0,.859-.546,2.562,2.562,0,0,0,.576-.823,2.609,2.609,0,0,0,0-2.051,2.58,2.58,0,0,0-.576-.822,2.666,2.666,0,0,0-.859-.547,2.929,2.929,0,0,0-2.112,0,2.668,2.668,0,0,0-.857.547,2.549,2.549,0,0,0-.576.822A2.5,2.5,0,0,0,389.808,47.129Z" transform="translate(0 -11.309)"/><path d="M406.152,42.929h1.6v8.4h-1.8v-5.6l-2.7,3.444-2.7-3.42v5.58h-1.8v-8.4h1.62l2.88,3.66Z" transform="translate(0 -11.309)"/><path d="M409.908,42.929h1.8v8.4h-1.8Z" transform="translate(0 -11.309)"/><path d="M413.388,47.129a3.91,3.91,0,0,1,.348-1.633,4.162,4.162,0,0,1,.96-1.338,4.588,4.588,0,0,1,1.446-.906,5.036,5.036,0,0,1,3.612,0,4.613,4.613,0,0,1,1.446.9,4.173,4.173,0,0,1,.96,1.338,3.9,3.9,0,0,1,.348,1.632,3.827,3.827,0,0,1-.1.9,4.061,4.061,0,0,1-.264.767,3.646,3.646,0,0,1-.372.629,4.765,4.765,0,0,1-.426.5,4.652,4.652,0,0,1-1.152.865,1.808,1.808,0,0,0,.48.425,2.755,2.755,0,0,0,.654.3,3.324,3.324,0,0,0,1,.129h.24v1.44h-.36a4.422,4.422,0,0,1-1.65-.274,4.955,4.955,0,0,1-1.122-.608,4.139,4.139,0,0,1-.864-.882l-.18.024h-.444a4.826,4.826,0,0,1-1.806-.334A4.627,4.627,0,0,1,414.7,50.1a4.162,4.162,0,0,1-.96-1.338A3.906,3.906,0,0,1,413.388,47.129Zm1.86.006a2.51,2.51,0,0,0,.21,1.028,2.562,2.562,0,0,0,.576.824,2.647,2.647,0,0,0,.858.548,2.915,2.915,0,0,0,2.112,0,2.658,2.658,0,0,0,.858-.548,2.562,2.562,0,0,0,.576-.824,2.621,2.621,0,0,0,0-2.056,2.562,2.562,0,0,0-.576-.824,2.675,2.675,0,0,0-.858-.548,2.915,2.915,0,0,0-2.112,0,2.664,2.664,0,0,0-.858.548,2.562,2.562,0,0,0-.576.824A2.514,2.514,0,0,0,415.248,47.135Z" transform="translate(0 -11.309)"/><path d="M427.848,49.721a1.8,1.8,0,0,0,.72-.146,1.847,1.847,0,0,0,.588-.4,1.953,1.953,0,0,0,.552-1.382v-4.86h1.8v4.882a3.494,3.494,0,0,1-.276,1.4,3.408,3.408,0,0,1-.768,1.117,3.556,3.556,0,0,1-1.158.747,4.058,4.058,0,0,1-2.916,0,3.545,3.545,0,0,1-1.158-.747,3.393,3.393,0,0,1-.768-1.117,3.5,3.5,0,0,1-.277-1.4V42.929h1.8v4.86a1.953,1.953,0,0,0,.552,1.382,1.847,1.847,0,0,0,.588.4A1.789,1.789,0,0,0,427.848,49.721Z" transform="translate(0 -11.309)"/><path d="M439.908,49.709v1.62h-6.3v-8.4h6.18v1.62h-4.38v1.68h3.42v1.62h-3.42v1.86Z" transform="translate(0 -11.309)"/><path class="cls-1" d="M155.885,47.973V78.484h0v1.762h-9.561V78.484h0V49.736h0V47.973Zm-5.221-16.2c3.254,0,5.356,1.628,5.356,5.154,0,2.983-1.7,5.219-5.424,5.219-4.34,0-5.491-2.779-5.491-5.219C145.1,34.21,146.8,31.769,150.664,31.769Z" transform="translate(0 -11.309)"/><path class="cls-1" d="M150.664,31.769c3.254,0,5.356,1.628,5.356,5.154,0,2.983-1.7,5.219-5.424,5.219-4.34,0-5.491-2.779-5.491-5.219C145.1,34.21,146.8,31.769,150.664,31.769Z" transform="translate(0 -11.309)"/><path class="cls-1" d="M90.358,80.246l-.542-5.492c-1.424,3.12-4.273,6.17-10.509,6.17C73,80.924,68.933,77.806,68.933,69.6V47.973h9.56V70.619c0,5.356.882,7.322,4.068,7.322,3.8,0,7.051-4.135,7.051-9.288V49.736h0V47.973h9.56V78.484h0v1.762Z" transform="translate(0 -11.309)"/><path class="cls-1" d="M127.884,75.365c-1.831,3.458-4.746,5.559-10.035,5.559-7.8,0-12.679-5.424-12.679-16.611C105.17,52.99,110.323,47.3,119,47.3c4.475,0,7.186,1.559,8.678,4V38.549h0V36.787h9.695v41.7h0v1.762h-8.881Zm0-5.7V57.4c0-3.662-2.442-7.8-6.442-7.8-4.61,0-6.17,4.339-6.17,14.644,0,10.034,1.153,13.7,5.628,13.7C124.223,77.941,127.884,75.025,127.884,69.669Z" transform="translate(0 -11.309)"/><path class="cls-1" d="M164.765,49.736h0V47.973h0V39.227l9.628-2.44V47.973h9.085v1.763h-9.085V80.924h-9.628Z" transform="translate(0 -11.309)"/><path class="cls-1" d="M200.089,47.3c9.357,0,13.832,5.288,13.425,15.458H193.445v1.83c0,8.815,1.83,13.9,8.746,13.9,5.153,0,8.2-3.052,9.56-8.137l1.831.272c-1.357,5.695-4.814,10.305-13.968,10.305-11.187,0-16.272-6.779-16.272-16.611C183.342,52.517,190.665,47.3,200.089,47.3Zm4.069,13.627c.134-8.61-.746-12-4.815-12-3.8,0-5.694,3.119-5.9,12Z" transform="translate(0 -11.309)"/><rect class="cls-1" x="12.543" y="20.242" width="9.559" height="34.645" transform="translate(-20.242 43.578) rotate(-90)"/><rect class="cls-2" x="7.441" y="44.295" width="9.559" height="24.441" transform="translate(-44.295 57.427) rotate(-90)"/><rect class="cls-1" x="12.543" y="58.143" width="9.559" height="34.645" transform="translate(-58.143 81.479) rotate(-90)"/><path class="cls-1" d="M50.145,61.737V78.484h0v1.762H40.586V78.484h0V49.736H36.178V47.973H50.145v6.306c1.424-4.814,4.746-6.983,8.678-6.983,4.136,0,6.984,2.644,6.984,7.051,0,3.865-1.967,5.763-4.882,5.763-2.712,0-4.746-1.492-4.746-5.017a10.17,10.17,0,0,1,.2-1.967h2.1a3.537,3.537,0,0,0,.339-1.491c0-1.288-.949-1.56-1.83-1.56C53.331,50.075,50.145,55.635,50.145,61.737Z" transform="translate(0 -11.309)"/><path class="cls-1" d="M22.268,20A3.911,3.911,0,0,1,24,19.769c1.56.339,2.644,1.153,2.644,2.575,0,1.628-1.289,2.578-2.711,3.187L13.628,30.548l-.813-.881S19.1,21.355,22.268,20Z" transform="translate(0 -11.309)"/><path class="cls-1" d="M12.815,29.667" transform="translate(0 -11.309)"/><path class="cls-1" d="M0,110.208V95.036H2.866v12.649H6.642v2.523Z" transform="translate(0 -11.309)"/><path class="cls-1" d="M14.736,110.208l-.453-2.8H11.462l-.456,2.8H8.049L11.21,95.036h3.3l3.184,15.172ZM12.872,98.243l-1.093,6.644h2.184Z" transform="translate(0 -11.309)"/><path class="cls-1" d="M19.5,110.208V95.036h4.572c2.524,0,3.64,1.778,3.64,3.865,0,1.913-.91,3.1-2.229,3.483,1.433.23,2.433,1.864,2.433,3.732,0,2.322-1.068,4.092-3.685,4.092Zm5.277-10.8c0-1.093-.387-1.842-1.456-1.842h-.954v3.661h.954C24.389,101.223,24.776,100.5,24.776,99.4Zm.205,6.3c0-1.12-.5-1.959-1.57-1.959H22.366v3.936h1.045C24.48,107.685,24.981,107,24.981,105.708Z" transform="translate(0 -11.309)"/><path class="cls-1" d="M29.751,102.637c0-4.462,1.388-7.85,4.731-7.85,3.322,0,4.732,3.388,4.732,7.85s-1.41,7.843-4.732,7.843C31.139,110.48,29.751,107.092,29.751,102.637Zm6.529,0c0-3.029-.456-5.3-1.8-5.3s-1.8,2.273-1.8,5.3c0,2.98.456,5.3,1.8,5.3S36.28,105.617,36.28,102.637Z" transform="translate(0 -11.309)"/><path class="cls-1" d="M47.049,110.208l-1.637-5.574H44.48v5.574H41.613V95.036h4.23c2.413,0,4.141,1.936,4.141,4.712,0,2.568-1.091,3.729-1.957,4.182l2.093,6.278Zm.023-10.369c0-1.392-.592-2.277-1.66-2.277H44.48v4.549h.932C46.48,102.111,47.072,101.2,47.072,99.839Z" transform="translate(0 -11.309)"/><path class="cls-1" d="M58.386,110.208l-.453-2.8H55.112l-.456,2.8H51.7L54.86,95.036h3.3l3.184,15.172ZM56.522,98.243l-1.093,6.644h2.184Z" transform="translate(0 -11.309)"/><path class="cls-1" d="M63.991,110.208V97.562h-2.3V95.036h7.461v2.526h-2.3v12.646Z" transform="translate(0 -11.309)"/><path class="cls-1" d="M70.6,102.637c0-4.462,1.388-7.85,4.731-7.85,3.322,0,4.733,3.388,4.733,7.85s-1.411,7.843-4.733,7.843C71.992,110.48,70.6,107.092,70.6,102.637Zm6.529,0c0-3.029-.456-5.3-1.8-5.3s-1.8,2.273-1.8,5.3c0,2.98.455,5.3,1.8,5.3S77.133,105.617,77.133,102.637Z" transform="translate(0 -11.309)"/><path class="cls-1" d="M82.459,110.208V95.036h2.867v15.172Z" transform="translate(0 -11.309)"/><path class="cls-1" d="M93.609,110.208l-1.637-5.574H91.04v5.574H88.173V95.036H92.4c2.412,0,4.141,1.936,4.141,4.712,0,2.568-1.091,3.729-1.957,4.182l2.093,6.278Zm.023-10.369c0-1.392-.592-2.277-1.66-2.277H91.04v4.549h.932C93.04,102.111,93.632,101.2,93.632,99.839Z" transform="translate(0 -11.309)"/><path class="cls-1" d="M99.022,110.208V95.036h6.643v2.526h-3.776v3.661h3.617v2.526h-3.617v3.936h3.776v2.523Z" transform="translate(0 -11.309)"/><path class="cls-1" d="M115.912,110.208V95.036h3.776c3.663,0,5.164,3.275,5.164,7.6,0,4.368-1.479,7.575-5.141,7.575Zm6-7.575c0-3.346-.728-5.071-2.229-5.071h-.909v10.12h.909C121.212,107.682,121.917,105.863,121.917,102.633Z" transform="translate(0 -11.309)"/><path class="cls-1" d="M128.159,100.951l-1.114-.912a3.989,3.989,0,0,0,1.683-2.136,1.534,1.534,0,0,1-.409.068,1.434,1.434,0,0,1-1.41-1.528,1.644,1.644,0,0,1,1.637-1.634,1.933,1.933,0,0,1,1.819,2.182A4.863,4.863,0,0,1,128.159,100.951Z" transform="translate(0 -11.309)"/><path class="cls-1" d="M132.991,110.208V95.036h6.643v2.526h-3.776v3.661h3.617v2.526h-3.617v3.933h3.776v2.526Zm3.958-16.45h-1.638l1.8-3.275h2.252Z" transform="translate(0 -11.309)"/><path class="cls-1" d="M141.549,102.633c0-4.526,1.433-7.846,4.753-7.846,2.458,0,3.322,1.951,3.8,3.569l-2.275.84c-.319-1.157-.682-1.864-1.526-1.864-1.363,0-1.819,2.2-1.819,5.3s.456,5.3,1.819,5.3c.934,0,1.343-.953,1.549-2.2l2.3.843c-.433,1.724-1.32,3.91-3.846,3.91C142.982,110.48,141.549,107.137,141.549,102.633Z" transform="translate(0 -11.309)"/><path class="cls-1" d="M151.778,102.633c0-4.458,1.388-7.846,4.731-7.846,3.322,0,4.732,3.388,4.732,7.846s-1.41,7.847-4.732,7.847C153.166,110.48,151.778,107.092,151.778,102.633Zm6.529,0c0-3.029-.456-5.3-1.8-5.3s-1.8,2.272-1.8,5.3c0,2.98.456,5.3,1.8,5.3S158.307,105.613,158.307,102.633Z" transform="translate(0 -11.309)"/><path class="cls-1" d="M169.577,110.208l-3.07-8.032v8.032h-2.866V95.036h2.866l2.912,7.733V95.036h2.866v15.172Z" transform="translate(0 -11.309)"/><path class="cls-1" d="M174.682,102.633c0-4.458,1.388-7.846,4.731-7.846,3.322,0,4.733,3.388,4.733,7.846s-1.411,7.847-4.733,7.847C176.07,110.48,174.682,107.092,174.682,102.633Zm6.529,0c0-3.029-.455-5.3-1.8-5.3s-1.8,2.272-1.8,5.3c0,2.98.456,5.3,1.8,5.3S181.211,105.613,181.211,102.633Z" transform="translate(0 -11.309)"/><path class="cls-1" d="M195.371,110.208v-8.962l-2.526,8.962h-.955l-2.479-8.962v8.962h-2.866V95.036h3.64l2.184,7.756,2.251-7.756h3.572v15.172Z" transform="translate(0 -11.309)"/><path class="cls-1" d="M201.066,110.208V95.036h2.866v15.172Z" transform="translate(0 -11.309)"/><path class="cls-1" d="M206.78,110.208V95.036h6.642v2.526h-3.776v3.661h3.617v2.526h-3.617v3.933h3.776v2.526Z" transform="translate(0 -11.309)"/><path class="cls-1" d="M69.978,130.418V115.242h2.684c2.32,0,3.343,2.046,3.343,4.413s-1.023,4.413-3.343,4.413H71.184v6.35Zm4.755-10.763c0-1.932-.683-3.3-2.161-3.3H71.184v6.618h1.388C74.05,122.976,74.733,121.591,74.733,119.655Z" transform="translate(0 -11.309)"/><path class="cls-1" d="M83.254,130.418,82.6,126.64H79.182l-.66,3.778H77.247l2.935-15.176h1.41l2.935,15.176Zm-2.367-13.606-1.546,8.712h3.093Z" transform="translate(0 -11.309)"/><path class="cls-1" d="M91.9,130.418l-2.116-6.35h-1.5v6.35H87.074V115.242h2.707c1.933,0,3.32,1.615,3.32,4.391,0,2.73-1.2,3.864-2.161,4.186l2.3,6.6Zm-.068-10.763c0-1.932-.683-3.3-2.161-3.3H88.28v6.618h1.388C91.146,122.976,91.829,121.591,91.829,119.655Z" transform="translate(0 -11.309)"/><path class="cls-1" d="M96.306,130.418V115.242h1.207v15.176Z" transform="translate(0 -11.309)"/><path class="cls-1" d="M100.23,129.347l.7-.979a2.751,2.751,0,0,0,2.206,1.206c1.182,0,2.161-1.025,2.161-2.639,0-3.8-4.664-4.164-4.664-8.414A3.271,3.271,0,0,1,106.257,116l-.592.93a2.4,2.4,0,0,0-1.841-.817,2.129,2.129,0,0,0-1.957,2.39c0,3.23,4.663,3.91,4.663,8.391,0,2.16-1.318,3.8-3.343,3.8A3.78,3.78,0,0,1,100.23,129.347Z" transform="translate(0 -11.309)"/><path class="cls-1" d="M108.437,123.18v-1.044h3.912v1.044Z" transform="translate(0 -11.309)"/><path class="cls-1" d="M115.149,130.418V115.242h5.187v1.116h-3.98v5.733h3.821v1.089h-3.821V129.3h3.98v1.12Z" transform="translate(0 -11.309)"/><path class="cls-1" d="M122.782,129.347l.706-.979a2.75,2.75,0,0,0,2.206,1.206c1.182,0,2.161-1.025,2.161-2.639,0-3.8-4.664-4.164-4.664-8.414A3.271,3.271,0,0,1,128.81,116l-.592.93a2.4,2.4,0,0,0-1.841-.817,2.129,2.129,0,0,0-1.957,2.39c0,3.23,4.662,3.91,4.662,8.391,0,2.16-1.317,3.8-3.342,3.8A3.783,3.783,0,0,1,122.782,129.347Z" transform="translate(0 -11.309)"/><path class="cls-1" d="M133.65,130.418v-14.06h-2.433v-1.116h6.118v1.116h-2.456v14.06Z" transform="translate(0 -11.309)"/><path class="cls-1" d="M142.275,123.18v-1.044h71.147v1.044Z" transform="translate(0 -11.309)"/><path class="cls-1" d="M0,123.18v-1.044H62.582v1.044Z" transform="translate(0 -11.309)"/></g></svg>